#!OML:ASF F:\VICON\USERDATA\INSTALL\rory3\rory3.ASF
:FULLY-SPECIFIED
:DEGREES
289
root 0.756436 18.5888 -13.9221 5.31383 -6.08948 4.24475
lowerback 6.52176 -0.601367 0.96389
upperback -2.30203 -0.482412 4.14928
thorax -6.04334 -0.189683 3.85845
lowerneck -20.4134 -2.58421 -9.12785
upperneck 12.1809 -1.83321 5.37467
head 7.19598 -0.80901 3.02975
rclavicle 1.39149e-014 1.43125e-014
rhumerus -32.2624 -6.15256 -79.2571
rradius 52.1537
rwrist -2.09797
rhand -18.4151 11.3077
rfingers 7.12502
rthumb 7.86971 -18.5258
lclavicle 1.39149e-014 1.43125e-014
lhumerus -39.1036 2.88943 84.6475
lradius 60.0362
lwrist 2.95589
lhand -26.0163 20.4009
lfingers 7.12502
lthumb 0.530025 50.38
rfemur -10.9032 6.96509 15.155
rtibia 28.306
rfoot -0.185628 -9.91197
rtoes 9.0356
lfemur -6.947 -2.75958 -22.9393
ltibia 19.0621
lfoot 1.67975 0.529601
ltoes -7.21796
290
root 0.749293 18.5846 -13.9239 5.43481 -6.11543 4.35275
lowerback 6.62486 -0.612344 0.702857
upperback -2.40584 -0.515642 4.10529
thorax -6.20814 -0.194572 3.96886
lowerneck -20.0048 -2.58852 -9.38182
upperneck 12.0941 -1.82817 5.50742
head 7.10377 -0.810372 3.11483
rclavicle -9.93923e-016 5.56597e-014
rhumerus -32.1752 -5.86699 -79.0277
rradius 51.3869
rwrist -2.0073
rhand -17.8646 11.5178
rfingers 7.12502
rthumb 8.40105 -18.2951
lclavicle -9.93923e-016 5.56597e-014
lhumerus -38.9585 3.32274 84.4002
lradius 60.0913
lwrist 2.85128
lhand -26.2045 21.1177
lfingers 7.12502
lthumb 0.348192 51.0972
rfemur -10.8925 7.08611 15.0574
rtibia 28.0271
rfoot -0.213664 -9.92763
rtoes 8.39825
lfemur -7.00449 -2.80362 -23.0433
ltibia 18.9163
lfoot 1.64569 0.606767
ltoes -7.17871
291
root 0.741819 18.5774 -13.9256 5.68016 -6.05588 4.37542
lowerback 6.56723 -0.698306 0.523224
upperback -2.543 -0.645252 4.08005
thorax -6.31025 -0.249838 4.06157
lowerneck -19.4344 -2.49418 -9.55499
upperneck 11.8806 -1.72561 5.63175
head 6.93467 -0.762293 3.19396
rclavicle -1.15295e-014 -2.70347e-014
rhumerus -32.0704 -5.63687 -78.8904
rradius 50.5947
rwrist -1.71148
rhand -17.5553 11.6806
rfingers 7.12502
rthumb 8.69946 -18.1202
lclavicle -1.15295e-014 -2.70347e-014
lhumerus -38.8706 3.82154 84.039
lradius 60.141
lwrist 2.74717
lhand -26.0885 21.9603
lfingers 7.12502
lthumb 0.460292 51.9395
rfemur -10.9901 7.35481 15.0519
rtibia 27.7739
rfoot -0.302065 -10.2466
rtoes 8.29488
lfemur -7.22432 -2.97393 -23.0256
ltibia 18.7627
lfoot 1.66259 0.698036
ltoes -7.08112
292
root 0.735547 18.5713 -13.9243 5.9119 -5.93922 4.25868
lowerback 6.42262 -0.755853 0.56239
upperback -2.57404 -0.725234 4.02246
thorax -6.25561 -0.292614 3.98473
lowerneck -19.1046 -2.44876 -9.51889
upperneck 11.7214 -1.70113 5.62012
head 6.82603 -0.751931 3.18521
rclavicle -6.75868e-015 1.11319e-014
rhumerus -31.8863 -5.59032 -78.834
rradius 49.9132
rwrist -1.473
rhand -17.5334 11.5898
rfingers 7.12502
rthumb 8.72064 -18.21
lclavicle -6.75868e-015 1.11319e-014
lhumerus -38.6342 4.09704 83.7282
lradius 60.279
lwrist 2.76079
lhand -25.4101 21.9737
lfingers 7.12502
lthumb 1.11551 51.9505
rfemur -11.0344 7.54581 15.2
rtibia 27.523
rfoot -0.441598 -10.6044
rtoes 9.11247
lfemur -7.37285 -3.05374 -22.8589
ltibia 18.5967
lfoot 1.65831 0.674923
ltoes -7.1055
293
root 0.731712 18.5695 -13.9231 6.10656 -5.8947 4.25571
lowerback 6.27642 -0.736434 0.559803
upperback -2.54016 -0.712462 3.89082
thorax -6.13751 -0.290589 3.84062
lowerneck -19.0493 -2.52723 -9.50968
upperneck 11.7059 -1.82259 5.6678
head 6.82189 -0.806071 3.18548
rclavicle 3.37934e-015 -5.24792e-014
rhumerus -31.6325 -5.68755 -78.771
rradius 49.2222
rwrist -1.28965
rhand -17.5654 11.4569
rfingers 7.12502
rthumb 8.68977 -18.3443
lclavicle 3.37934e-015 -5.24792e-014
lhumerus -38.3787 4.20537 83.5277
lradius 60.4746
lwrist 2.72967
lhand -25.1355 22.9946
lfingers 7.12502
lthumb 1.38074 52.9699
rfemur -11.0419 7.60123 15.2024
rtibia 27.2447
rfoot -0.516675 -10.6966
rtoes 9.40078
lfemur -7.48399 -3.12111 -22.8426
ltibia 18.4597
lfoot 1.61197 0.751149
ltoes -7.22096
294
root 0.725368 18.567 -13.9241 6.1927 -5.95225 4.20468
lowerback 6.32156 -0.681355 0.55418
upperback -2.52251 -0.645677 3.76485
thorax -6.14959 -0.260066 3.70372
lowerneck -19.0263 -2.58646 -9.47412
upperneck 11.8689 -1.92458 5.70569
head 6.87935 -0.852503 3.18227
rclavicle 1.43125e-014 3.33958e-014
rhumerus -31.4662 -5.96039 -78.6521
rradius 48.4125
rwrist -1.02559
rhand -17.37 11.5239
rfingers 7.12502
rthumb 8.87826 -18.2693
lclavicle 1.43125e-014 3.33958e-014
lhumerus -38.2125 4.26429 83.297
lradius 60.5219
lwrist 2.68709
lhand -25.6085 23.8391
lfingers 7.12502
lthumb 0.923882 53.8168
rfemur -10.9325 7.83317 15.2779
rtibia 26.9322
rfoot -0.553306 -10.7688
rtoes 9.35022
lfemur -7.45708 -3.08764 -22.7679
ltibia 18.3085
lfoot 1.49404 0.828868
ltoes -8.18315
295
root 0.719985 18.5578 -13.9251 6.29636 -6.01162 4.13587
lowerback 6.36317 -0.66018 0.541373
upperback -2.52376 -0.62216 3.67916
thorax -6.17655 -0.249514 3.6188
lowerneck -18.7456 -2.5624 -9.42824
upperneck 11.7499 -1.9265 5.69167
head 6.79377 -0.854733 3.16884
rclavicle 2.16675e-014 -6.52014e-014
rhumerus -31.3278 -6.17805 -78.5336
rradius 47.642
rwrist -0.710283
rhand -17.0296 11.6899
rfingers 7.12502
rthumb 9.20682 -18.0891
lclavicle 2.16675e-014 -6.52014e-014
lhumerus -38.163 4.45963 83.0496
lradius 60.6331
lwrist 2.5202
lhand -25.9541 23.4552
lfingers 7.12502
lthumb 0.590035 53.4341
rfemur -10.8723 7.99352 15.3627
rtibia 26.6294
rfoot -0.642046 -10.8261
rtoes 8.53823
lfemur -7.4542 -2.99396 -22.6762
ltibia 18.142
lfoot 1.36475 0.815033
ltoes -9.4397
296
root 0.713089 18.5472 -13.9238 6.42045 -6.03053 4.007
lowerback 6.33078 -0.642624 0.617411
upperback -2.46821 -0.60066 3.57365
thorax -6.10182 -0.245213 3.45984
lowerneck -18.7175 -2.55384 -9.28708
upperneck 11.6223 -1.94993 5.68309
head 6.7479 -0.858915 3.13928
rclavicle 8.34896e-015 -1.59028e-015
rhumerus -30.9988 -6.65681 -78.4787
rradius 46.7882
rwrist -0.261789
rhand -17.016 11.5885
rfingers 7.12502
rthumb 9.21993 -18.1899
lclavicle 8.34896e-015 -1.59028e-015
lhumerus -37.8403 4.64439 82.7933
lradius 60.5609
lwrist 2.20763
lhand -25.7567 22.5854
lfingers 7.12502
lthumb 0.780685 52.5637
rfemur -10.8415 8.22159 15.5167
rtibia 26.3653
rfoot -0.913532 -11.0664
rtoes 7.68368
lfemur -7.50876 -3.0286 -22.5121
ltibia 17.9963
lfoot 1.29912 0.891962
ltoes -9.82711
297
root 0.706587 18.5352 -13.922 6.53317 -6.06346 3.93405
lowerback 6.33478 -0.590856 0.674857
upperback -2.37739 -0.537121 3.43193
thorax -6.01288 -0.220283 3.26874
lowerneck -19.1428 -2.59265 -9.34808
upperneck 11.9176 -1.99396 5.93289
head 6.92099 -0.858159 3.23009
rclavicle 1.78906e-014 -4.77083e-015
rhumerus -30.7357 -7.26421 -78.3916
rradius 46.0313
rwrist -0.0118315
rhand -17.1562 11.5276
rfingers 7.12502
rthumb 9.08466 -18.2567
lclavicle 1.78906e-014 -4.77083e-015
lhumerus -37.3614 4.7244 82.5992
lradius 60.3778
lwrist 2.04825
lhand -25.8894 19.9666
lfingers 7.12502
lthumb 0.652567 49.9454
rfemur -10.829 8.28432 15.5999
rtibia 26.1305
rfoot -1.11412 -11.1305
rtoes 7.19354
lfemur -7.53974 -3.09878 -22.4177
ltibia 17.8454
lfoot 1.19228 0.981584
ltoes -11.6435
